<svg width="24" height="24" viewBox="0 0 24 24" fill="none" xmlns="http://www.w3.org/2000/svg">
<path d="M18.7 15.71L16.2 18.21C16 18.41 15.75 18.5 15.49 18.5C15.23 18.5 14.98 18.4 14.78 18.21L13.28 16.71C12.89 16.32 12.89 15.69 13.28 15.3C13.67 14.91 14.3 14.91 14.69 15.3L15.48 16.09L17.27 14.3C17.66 13.91 18.29 13.91 18.68 14.3C19.07 14.69 19.07 15.32 18.68 15.71H18.7ZM22 15.55C22 15.55 21.98 15.61 21.98 15.64C21.98 15.76 22 15.88 22 16.01C22 19.32 19.31 22.01 16 22.01C13.39 22.01 11.18 20.34 10.35 18.01H5C3.35 18.01 2 16.66 2 15.01V5C2 3.35 3.35 2 5 2H19C20.65 2 22 3.35 22 5V15.55ZM4 5V6H20V5C20 4.45 19.55 4 19 4H5C4.45 4 4 4.45 4 5ZM20 16C20 13.79 18.21 12 16 12C13.79 12 12 13.79 12 16C12 18.21 13.79 20 16 20C18.21 20 20 18.21 20 16Z" fill="#141719"/>
</svg>
