<?xml version="1.0"?>
<svg width="24" height="24" xmlns="http://www.w3.org/2000/svg" xmlns:svg="http://www.w3.org/2000/svg">
 <g class="layer">
  <title>Layer 1</title>
  <path d="m16.2,11.7c0,-0.28 -0.02,-0.56 -0.07,-0.84l-3.89,0l0,1.59l2.23,0a1.91,1.91 0 0 1 -0.83,1.25l0,1.03l1.33,0c0.78,-0.71 1.23,-1.78 1.23,-3.03z" fill="#4285F4" id="svg_2"/>
  <path d="m12.25,15.73c1.11,0 2.05,-0.37 2.73,-1l-1.33,-1.03c-0.37,0.25 -0.84,0.4 -1.4,0.4c-1.07,0 -1.99,-0.73 -2.31,-1.71l-1.37,0l0,1.07a4.12,4.12 0 0 0 3.68,2.27z" fill="#34A853" id="svg_3"/>
  <path d="m9.94,12.39a2.46,2.46 0 0 1 0,-1.57l0,-1.06l-1.37,0a4.12,4.12 0 0 0 0,3.7l1.37,-1.07z" fill="#FBBC04" id="svg_4"/>
  <path d="m12.25,9.12a2.24,2.24 0 0 1 1.58,0.62l1.18,-1.18a3.97,3.97 0 0 0 -2.76,-1.07a4.12,4.12 0 0 0 -3.68,2.27l1.37,1.06c0.32,-0.98 1.24,-1.7 2.31,-1.7z" fill="#EA4335" id="svg_5"/>
 </g>
</svg>